<?xml version="1.0" encoding="UTF-8" standalone="no"?>
<svg
   xmlns:dc="http://purl.org/dc/elements/1.1/"
   xmlns:cc="http://creativecommons.org/ns#"
   xmlns:rdf="http://www.w3.org/1999/02/22-rdf-syntax-ns#"
   xmlns:svg="http://www.w3.org/2000/svg"
   xmlns="http://www.w3.org/2000/svg"
   xmlns:sodipodi="http://sodipodi.sourceforge.net/DTD/sodipodi-0.dtd"
   xmlns:inkscape="http://www.inkscape.org/namespaces/inkscape"
   version="1.1"
   id="svg2"
   width="981"
   height="980"
   viewBox="0 0 981 980"
   sodipodi:docname="edit.svg"
   inkscape:version="1.0.1 (0767f8302a, 2020-10-17)">
  <metadata
     id="metadata8">
    <rdf:RDF>
      <cc:Work
         rdf:about="">
        <dc:format>image/svg+xml</dc:format>
        <dc:type
           rdf:resource="http://purl.org/dc/dcmitype/StillImage" />
        <dc:title></dc:title>
      </cc:Work>
    </rdf:RDF>
  </metadata>
  <defs
     id="defs6" />
  <sodipodi:namedview
     pagecolor="#ffffff"
     bordercolor="#666666"
     borderopacity="1"
     objecttolerance="10"
     gridtolerance="10"
     guidetolerance="10"
     inkscape:pageopacity="0"
     inkscape:pageshadow="2"
     inkscape:window-width="1848"
     inkscape:window-height="1009"
     id="namedview4"
     showgrid="false"
     inkscape:zoom="0.42755102"
     inkscape:cx="343.21977"
     inkscape:cy="432.64619"
     inkscape:window-x="72"
     inkscape:window-y="34"
     inkscape:window-maximized="1"
     inkscape:current-layer="g10" />
  <g
     inkscape:groupmode="layer"
     inkscape:label="Image"
     id="g10">
    <path
       style="fill:#000000"
       d="m 190.07215,979.58763 c -48.9975,-4.38115 -89.2384,-23.18029 -124.112998,-57.98125 -35.4516,-35.37667 -53.9886,-74.53931 -58.3820002,-123.34207 -0.8124,-9.02462 -1.038,-97.02117 -0.8112,-316.5 l 0.3141,-304 2.3438,-12.5 C 19.414752,111.98125 47.719652,68.248729 93.371552,35.561169 116.41245,19.063499 141.86195,8.6191692 172.66495,3.0197292 l 12.4072,-2.25541998 h 203.3319 203.33194 l 3.04145,3.40383998 c 2.88592,3.2298 3.01703,3.74501 2.56405,10.0759898 -0.74376,10.39501 -5.49203,18.36662 -20.76107,34.85463 -26.24399,28.3391 -33.47512,33.80963 -50.41822,38.14265 -7.77706,1.9889 -10.59151,2.02299 -167.49995,2.02879 -173.1477,0.006 -170.0683,-0.0839 -186.6161,5.47104 -35.2115,11.820091 -63.2781,41.722981 -73.231898,78.023061 l -2.7421,10 -0.2865,302 c -0.2009,211.66216 0.036,304.47705 0.7913,310.28079 2.1634,16.62033 8.470998,33.10602 18.214998,47.60716 5.2844,7.86423 21.528,24.10789 29.3923,29.39224 14.5011,9.74399 30.9868,16.0516 47.6071,18.21501 5.8038,0.75546 98.6187,0.99217 310.28081,0.79134 l 302,-0.28654 10,-2.74614 c 36.40901,-9.99841 66.17595,-37.9359 78.02306,-73.22783 5.5458,-16.52063 5.46418,-13.79292 5.47662,-183.02603 0.008,-110.137 0.33422,-157.17597 1.10928,-160 0.90648,-3.30285 5.5551,-8.48275 26.67213,-29.72038 14.06587,-14.14622 27.18185,-26.52122 29.14661,-27.5 8.92849,-4.44792 23.23849,-0.51905 28.81773,7.91201 l 2.75457,4.16258 v 186.57289 c 0,173.23984 -0.1258,187.36506 -1.76031,197.65772 -6.8769,43.30455 -25.09915,78.778 -56.69479,110.36835 -30.57657,30.57144 -64.08106,48.32617 -106.0449,56.19539 l -12.5,2.34405 -307.5,0.0942 c -169.12501,0.0518 -309.30001,-0.0668 -311.50001,-0.26348 z m 49.5,-326.07417 V 559.7626 l 219.49943,-219.49771 219.49943,-219.49772 93.50108,93.49707 c 51.42559,51.42338 93.38835,93.82267 93.25057,94.22063 -0.13777,0.39797 -98.50192,99.28614 -218.58699,219.75151 L 428.39918,747.26431 h -94.41353 -94.4135 z m 200.24575,-6.99483 37.75548,-37.74567 -49.7463,-49.75377 -49.74633,-49.75376 -37.7543,37.74451 -37.7543,37.7445 v 18.49908 18.49907 l 31.2441,31.25586 31.244,31.25586 h 18.5011 18.5011 z M 454.362,468.3307 c 3.60519,-1.8789 234.2462,-231.99785 237.57666,-237.0389 2.61683,-3.9609 2.09591,-10.08907 -1.25028,-14.70836 -4.50574,-6.21999 -10.71479,-8.53741 -16.80112,-6.27072 -2.91994,1.08745 -232.22069,229.3594 -237.41685,236.35163 -5.35899,7.21134 -3.22501,15.34756 5.51108,21.01215 4.76933,3.09248 7.43202,3.23318 12.38051,0.6542 z M 814.30473,172.49689 720.54129,78.729469 754.80673,44.630079 c 31.80188,-31.64778 34.80465,-34.36153 41.76543,-37.7455398 18.2988,-8.89605 38.07081,-8.72993 57,0.4789 8.4508,4.1112098 8.82748,4.4629198 65.08203,60.7680098 54.42805,54.476951 56.73519,56.937411 60.60537,64.632861 5.68411,11.30228 6.81425,16.20364 6.80202,29.5 -0.008,9.05774 -0.47935,12.98659 -2.21791,18.5 -4.33875,13.7592 -7.47224,17.67712 -42.18864,52.75 -17.82942,18.0125 -32.68031,32.75 -33.00199,32.75 -0.32168,0 -42.77842,-42.19534 -94.34831,-93.76742 z"
       id="path14" />
    <circle
       id="path27"
       style="fill:#000000;stroke:#000000"
       cx="-1133.103"
       cy="119.52298"
       r="3.5048449" />
    <circle
       id="path29"
       style="fill:#000000;stroke:#000000"
       cx="-1023.5765"
       cy="182.87206"
       r="3.5048449" />
  </g>
</svg>
