<?xml version="1.0" encoding="UTF-8" standalone="no"?>
<svg
   xmlns:dc="http://purl.org/dc/elements/1.1/"
   xmlns:cc="http://creativecommons.org/ns#"
   xmlns:rdf="http://www.w3.org/1999/02/22-rdf-syntax-ns#"
   xmlns:svg="http://www.w3.org/2000/svg"
   xmlns="http://www.w3.org/2000/svg"
   xmlns:sodipodi="http://sodipodi.sourceforge.net/DTD/sodipodi-0.dtd"
   xmlns:inkscape="http://www.inkscape.org/namespaces/inkscape"
   version="1.1"
   id="svg2"
   width="1101"
   height="1101"
   viewBox="0 0 1101 1101"
   sodipodi:docname="PinClipart.com_box-clipart-black-and_2199418.png.svg"
   inkscape:version="1.0.1 (0767f8302a, 2020-10-17)">
  <metadata
     id="metadata8">
    <rdf:RDF>
      <cc:Work
         rdf:about="">
        <dc:format>image/svg+xml</dc:format>
        <dc:type
           rdf:resource="http://purl.org/dc/dcmitype/StillImage" />
        <dc:title></dc:title>
      </cc:Work>
    </rdf:RDF>
  </metadata>
  <defs
     id="defs6" />
  <sodipodi:namedview
     pagecolor="#ffffff"
     bordercolor="#666666"
     borderopacity="1"
     objecttolerance="10"
     gridtolerance="10"
     guidetolerance="10"
     inkscape:pageopacity="0"
     inkscape:pageshadow="2"
     inkscape:window-width="1848"
     inkscape:window-height="1009"
     id="namedview4"
     showgrid="false"
     inkscape:zoom="0.53819753"
     inkscape:cx="471.04514"
     inkscape:cy="615.26115"
     inkscape:window-x="72"
     inkscape:window-y="34"
     inkscape:window-maximized="1"
     inkscape:current-layer="g10" />
  <g
     inkscape:groupmode="layer"
     inkscape:label="Image"
     id="g10">
    <path
       style="fill:#000000"
       d="m 192.88759,1099.5455 c -8.6962,-0.5376 -24.6331,-3.1949 -35.2452,-5.8769 -35.6443,-9.0082 -67.394001,-27.114 -93.732601,-53.4526 -31.201,-31.201 -49.8151,-67.9583 -57.7189004,-113.9778 -1.7153,-9.9877 -1.8033,-28.33275 -1.8033,-376 0,-347.66725 0.088,-366.0123 1.8033,-376 C 14.094689,128.21869 32.708789,91.461421 63.909789,60.260413 95.110789,29.059405 131.86809,10.445361 177.88759,2.5415557 c 9.9877,-1.71537798 28.3327,-1.80336498 375.99997,-1.80336498 347.66725,0 366.0123,0.08799 376,1.80336498 46.0195,7.9038053 82.77684,26.5178493 113.97784,57.7188573 31.201,31.201008 49.815,67.958277 57.7188,113.977787 1.7154,9.9877 1.8034,28.33275 1.8034,376 0,347.66725 -0.088,366.0123 -1.8034,376 -7.9038,46.0195 -26.5178,82.7768 -57.7188,113.9778 -30.8989,30.8989 -66.28475,48.9654 -112.97784,57.6819 -8.97713,1.6758 -29.39653,1.7793 -371,1.8805 -198.825,0.059 -363.97497,-0.046 -366.99997,-0.2329 z M 925.38756,996.98727 c 10.94814,-3.01176 23.40769,-8.59634 32.28848,-14.47222 7.56935,-5.00818 19.32089,-16.22374 25.43702,-24.27685 6.78424,-8.93281 14.28169,-24.5285 17.54694,-36.5 l 2.7276,-10 v -361.5 -361.5 l -2.751,-10 c -3.01173,-10.94814 -8.59631,-23.4077 -14.47219,-32.28849 -5.00818,-7.56935 -16.22374,-19.32089 -24.27685,-25.43702 -8.93281,-6.78424 -24.5285,-14.28169 -36.5,-17.54696 l -10,-2.72754 h -361.5 -361.49997 l -10,2.72754 c -11.9715,3.26527 -27.5672,10.76272 -36.5,17.54696 -8.0531,6.11613 -19.2687,17.86767 -24.2769,25.43702 -5.8759,8.88079 -11.4604,21.34035 -14.4722,32.28849 l -2.7509,10 v 361.5 361.5 l 2.7509,10 c 4.916,17.87018 13.0635,32.51783 25.2491,45.39286 16.1729,17.08794 35.2093,27.33444 58.7348,31.61451 5.9459,1.08173 72.36597,1.29193 365.76517,1.15723 l 358.5,-0.1646 z m -168,-246.20564 c -21.93583,-4.05675 -36.66986,-14.98568 -69.48918,-51.54343 -24.82257,-27.65009 -33.62507,-35.28511 -43.76082,-37.95682 -12.20799,-3.21793 -23.96851,8.28882 -29.08441,28.45682 -2.83319,11.16908 -3.13233,13.21786 -4.19824,28.75374 -1.31676,19.19213 -3.77046,24.14298 -14.33492,28.92369 -4.92152,2.22713 -6.30019,2.33523 -33.54923,2.63074 -21.96536,0.2382 -31.38706,-0.0669 -41.5,-1.34366 -43.49404,-5.49136 -88.29545,-25.61519 -124.0832,-55.73551 -47.18353,-39.71144 -98.64798,-114.38031 -152.47892,-221.229 -24.05765,-47.75185 -33.14515,-68.17698 -33.76415,-75.8882 -0.4492,-5.59614 -0.2475,-6.46957 2.1532,-9.32266 1.5795,-1.87705 4.7566,-3.88304 7.8694,-4.96858 4.8042,-1.6754 9.6058,-1.82056 60.22047,-1.82056 h 55 l 5,2.65675 c 8.61881,4.57961 10.87184,7.85179 19.51552,28.34325 7.72142,18.30506 23.65381,49.77746 34.67702,68.5 24.56451,41.72199 43.30587,65.77944 55.80746,71.63752 6.14866,2.88119 7.72641,2.91538 13.15966,0.28519 10.94877,-5.30021 15.62087,-27.99789 15.52506,-75.42271 -0.12538,-62.06226 -6.27632,-77.49011 -33.68986,-84.50131 -4.30804,-1.10182 -8.03581,-2.2063 -8.28393,-2.45442 -1.29306,-1.29306 1.44166,-6.2921 5.85808,-10.70852 10.34284,-10.34284 25.09077,-14.25412 60.18099,-15.96054 36.6382,-1.7817 72.49827,0.55898 88.13544,5.75281 6.35756,2.11164 12.81239,8.0798 15.50288,14.33401 4.0078,9.31638 4.42799,17.4815 3.08966,60.03797 -0.68322,21.725 -1.02706,50.3 -0.7641,63.5 0.41281,20.72174 0.7542,24.78605 2.49931,29.75461 2.65897,7.57045 6.67592,13.22762 10.77293,15.17178 4.32166,2.05076 5.65295,1.98854 10.97459,-0.51293 22.00459,-10.34337 65.72214,-77.74759 92.98957,-143.37236 7.31558,-17.60647 9.85203,-21.63435 15.40875,-24.46918 3.55337,-1.8128 7.13769,-1.92641 70.69207,-2.24077 66.41332,-0.3285 66.9849,-0.31424 71.4489,1.78301 2.475,1.1628 5.625,3.34012 7,4.83851 2.21734,2.41632 2.48408,3.53403 2.35921,9.88583 -0.35741,18.18058 -18.80145,51.08589 -56.98317,101.6615 -9.34242,12.375 -23.26937,30.825 -30.94877,41 -7.6794,10.175 -15.96861,22.325 -18.42048,27 -4.02808,7.6804 -4.46029,9.17497 -4.48236,15.5 -0.0422,12.08228 0.44573,12.71654 40.00086,52 42.78974,42.49587 55.68151,57.61119 66.2761,77.70729 6.58936,12.49886 6.78809,20.9207 0.6539,27.71052 -3.79758,4.20347 -12.60783,8.59436 -20.08878,10.01192 -2.67658,0.50719 -24.44151,1.18981 -48.36651,1.51695 -23.925,0.32713 -46.65,0.774 -50.5,0.99304 -3.85,0.21905 -10.15,-0.18428 -14,-0.89629 z"
       id="path14" />
  </g>
</svg>
